<?xml version="1.0" encoding="utf-8"?>
<!-- Generator: Adobe Illustrator 21.0.0, SVG Export Plug-In . SVG Version: 6.00 Build 0)  -->
<svg version="1.1" id="Layer_1" xmlns="http://www.w3.org/2000/svg" xmlns:xlink="http://www.w3.org/1999/xlink" x="0px" y="0px"
	 viewBox="0 0 515 162.9" style="enable-background:new 0 0 515 162.9;" xml:space="preserve">
<style type="text/css">
	.st0{fill:#ED382F;}
	.st1{fill:#FFFFFF;}
</style>
<g>
	<path class="st0" d="M81.4,0C36.5,0,0,36.5,0,81.4c0,44.9,36.5,81.4,81.4,81.4s81.4-36.5,81.4-81.4C162.9,36.5,126.3,0,81.4,0z
		 M81.4,148c-36.7,0-66.6-29.9-66.6-66.6c0-36.7,29.9-66.6,66.6-66.6c36.7,0,66.6,29.9,66.6,66.6C148,118.2,118.2,148,81.4,148z"/>
	<path class="st1" d="M118.7,66.6c-1.5,0-3,0.2-4.4,0.6c-1.1-11.6-9.4-20.7-19.5-20.7c-5.9,0-11.1,3.1-14.7,8c-3.6-4.9-8.9-8-14.7-8
		c-9.9,0-18.1,8.8-19.4,20.2c-0.5-0.1-1.1-0.1-1.6-0.1c-10.9,0-19.7,10.5-19.7,23.4l0.1-0.8h26.8l24.4,27.1h1.5V89.2h23.5l0,0h37.4
		C137.9,76.7,129.3,66.6,118.7,66.6z M225.7,39.1c-6.6,0-12.3,1.8-17.7,5.5V26.6h-20v58.3h20V62.9c0-5,3.6-7.9,9.4-7.9
		c5.7,0,7.3,2.6,7.3,8.8v21h20V60C244.7,45.9,239.1,39.1,225.7,39.1z M316.5,71.1h-21.8c-1.4,2.2-4.6,3.5-9.5,3.5
		c-7.5,0-11.6-2.9-11.6-7.6h43.3v-0.8c0-18.2-11.2-27.8-32.9-27.8c-20.6,0-31.8,9-31.8,23.9c0,15,11.2,23.9,31.8,23.9
		C302.6,86.4,313.5,81,316.5,71.1z M285.1,49.7c6.6,0,10.6,2.9,11.2,7.8h-23.8C273.6,52.4,278,49.7,285.1,49.7z M326.8,71.2
		c0,6.5,0.8,10.4,6.1,12.6c3.2,1.3,7.2,1.8,12,1.8c3.2,0,6.5-0.3,9.8-0.9V72.4h-2.9c-4.9,0-4.9-2.5-4.9-9.4v-9.3h7.2V41.1h-7.2V26.5
		h-20.2v14.6h-7.1v12.6h7.1V71.2z M402,83.1l0.6-3l0.2-0.6c1.2-3.1,3.8-5.2,7-5.8v-3h-23.5l24.1-18.8V40H360v13.7h22L357.3,73v11.8
		h44.2C401.7,84.2,401.9,83.6,402,83.1z M427.2,82.3c1.9-1,3.9-1.7,5.9-2.4c4.9-1.6,9.2-2,12.9-2.5c1.7-0.2,4.3-0.2,4.3-0.2
		c1.3,0,3.5,0.2,8.5,1.5l5.1,1.4v4.3c8.5-2.4,13.8-6.9,15.7-13.2h-21.8c-1.4,2.2-4.6,3.5-9.5,3.5c-7.5,0-11.6-2.9-11.6-7.6H480v-0.8
		c0-18.2-11.2-27.8-32.9-27.8c-20.6,0-31.8,9-31.8,23.9C415.3,71.5,419.4,78.3,427.2,82.3z M448.2,49.7c6.6,0,10.6,2.9,11.2,7.8
		h-23.8C436.7,52.4,441.1,49.7,448.2,49.7z M508.6,26.6h-20.4v58.3h20.4V26.6z M398.1,111.8h-1.5c-0.2,0-0.4,0.1-0.5,0.2
		c-0.8,0.7-1.5,1.3-2.2,1.9c-6.1,5.2-7.6,5.9-7.9,5.9h-2.5c-1.8,0-3.3-1.2-4.6-3.6c-1.1-2-1.7-3.8-1.7-5.4c0-1.8,0.5-3.9,1.7-6.5
		l0-0.1c0.4-1,0.7-1.6,0.7-3.6c0-1.2-1-2.1-2.4-2.3c-0.1,0-0.2,0-0.3,0c-2.5,0.6-5,2-7.6,4.2l-5.2,5.1l-0.5,0.4
		c-2.7,2.5-4.9,4.8-6.5,6.6c-0.9,1-1.7,1.8-2.2,2.5c-0.9,1-1.4,1.6-2,2.1c0,0-0.1,0.1-0.1,0.1l-0.2,0.3c-1.9,1-3.2,1.7-3.7,1.9
		c-0.3,0.1-1,0.2-2.1,0.3c-0.8,0.1-1.7,0.1-2.7,0.1c-0.6,0-2.5-0.3-3.4-0.5c-2.7-0.6-4.9-2.8-4.9-2.8l-0.5,0.5l0.5-0.6
		c-1.8-2-2.1-2.8-2.1-3.1c0.1-0.1,0.4-0.5,1.5-1.3c1.5-1.1,2.3-1.7,2.4-1.7c0,0,0.1-0.1,0.1-0.1l0.6-0.6c3.8-3.9,4.6-4.9,4.8-5.3
		c0-0.1,0.1-0.1,0.1-0.2c0.6-2,0.9-3.3,1-4.4c0-0.1,0.2-2.4-1.7-3.9c-1.1-0.9-2.5-1.8-4.2-1.8c-2.1,0-4.4,1.1-7,3.4
		c-2.2,2-3.5,3.8-4,5.4c-0.1,0.5-0.3,0.9-0.4,1.3l-0.1,0.4c-0.2,0.9-0.4,1.8-0.5,2.6c-0.1,0.6-0.1,1.1-0.1,1.5
		c0,0.8,0.2,1.4,0.6,1.9c0,0.2,0.1,0.5,0.1,1.1c-0.9,0.7-2.4,1.7-4.7,3.2c-0.5,0.3-0.9,0.6-1.3,0.8c-2.5,1.6-4,2.1-4.3,2.3
		c-0.2,0.1-0.3,0.1-0.4,0.2c0.3-0.8,0.7-1.9,1.3-3.3c1.8-4,2.6-7.4,2.6-10.5c0-1.1-0.6-3-1.7-5.8c-1.4-3.6-2.4-5-3.6-5
		c-1.4,0-2.1,0.2-2.5,0.7c-0.2,0.3-0.4,0.4-0.5,0.4c-0.2,0.1-0.3,0.2-0.4,0.4c-0.2,0.4-0.8,1.5-2.5,3.9l-0.3,0.4
		c-1.3,1.8-2.1,3.2-2.4,4c-0.3,0.3-0.7,0.9-1.3,1.7c-0.4,0.6-0.9,1.2-1.2,1.6c-2,1.7-2.3,2-3.5,3l-0.5,0.4c-1.6,1.3-2.8,2.3-3.6,2.9
		c-5.3,4-9.4,6.4-11.3,6.4c-0.1,0-0.2,0-0.3,0.1H280c-2.3,0-4.5-1.8-4.5-3.2c0-0.1,0.2-0.5,0.2-0.7c0.1-0.3,0.2-0.5,0.2-0.7
		c0.2-0.3,0.4-0.6,0.7-0.9c0.7-1,1.6-2.2,2.1-2.9c0.1-0.1,0.1-0.2,0.1-0.2c0.1-0.4,0.6-1.5,2.3-3.3c1.5-1.6,2.6-3,3.1-3.9
		c0.1-0.2,0.3-0.3,0.5-0.4c0.1,0,0.1,0,0.1-0.1c0.1,0,0.3-0.2,1-0.4l0,0c0,0,0,0.1,0,0.1c0,0.3-0.1,0.7-0.2,1.3
		c-0.1,0.4-0.2,0.8-0.2,1.3c-0.1,0.8,0,3.1,0,3.4c0,0.5,0.1,1.3,0.2,2c0.1,0.5,0.1,0.9,0.2,1.3c0,0.2,0.1,0.4,0.3,0.5
		c0.2,0.1,0.4,0.2,0.6,0.1c0.1,0,0.1,0,0.2,0c0.3,0,0.5,0,0.6,0c0,0,0.1,0,0.1,0c0,0,0,0,0,0c0.4,0,0.8-0.3,0.8-0.8
		c0-0.1,0-0.1,0-0.2c0-0.5,0.1-1.1,0.5-2.1c0.4-1.1,0.6-2.1,0.6-2.9c0.1-0.4,0.5-1.8,0.8-2.8c0.3-0.4,0.6-1.3,1.4-3.3l0.6-1.5
		c0.8-2,1.1-2.7,1.2-3.1c0.5-0.7,0.5-1.6,0.5-1.7c0-0.6-0.8-2.2-3.2-3.4c-0.2-0.1-0.5-0.1-0.7,0c-0.7,0.4-1,0.8-1.5,1.5l-0.2,0.3
		c-0.1,0.1-0.1,0.1-0.1,0.3c-0.1,0.2-0.8,1.2-3.1,3.3c-0.7,0.7-1.5,1.4-2.3,2.2c-0.6,0.5-1.2,1.1-1.7,1.6c-0.1,0.1-0.2,0.2-0.2,0.3
		c0,0-0.2,0.4-1.5,1.8c0,0,0,0-0.1,0.1c0,0-1.5,1.9-2.1,2.7c-4.7,4.8-6.9,8.5-6.9,11.7c0,1.6,0.7,3.1,2.2,4.5c1.5,1.4,2.8,2.2,5,2.2
		c0.9,0.3,1.8,0.4,2.9,0.4c10.4,0,25.9-14.5,27-15.6c1.5-1,2.7-2.8,3.8-4.3l0.1-0.1c0.6-0.9,1-1.5,1.4-1.9l0,0
		c0.2,0.4,0.3,0.7,0.5,1c0.5,1.2,0.5,1.6,0.5,1.8c0,0.1,0,0.6-0.5,1.9c-0.2,0.5-0.3,0.9-0.4,1.4c-0.1,0.5-0.2,0.9-0.3,1.1
		c0,0,0,0.1,0,0.1c-0.1,0.9-1.2,3.1-2.1,5c-1.3,2.6-2,4.3-2,5.4c0,1.3,1.2,2.8,2.7,3.3c0.3,0.1,0.4,0.1,0.5,0.2
		c0.1,0.1,0.3,0.1,0.5,0.3c0.9,0.3,1.2,0.3,1.3,0.3c0.2,0,0.6,0,1,0c0.3,0,0.6,0,0.7,0c0.1,0,0.4,0,2-0.8c0,0,2-1.1,3.8-2.2
		c1.2-0.5,1.3-0.5,1.4-0.6c0,0,0.1-0.1,0.2-0.1c0.1,0,0.2-0.1,0.3-0.1c0,0,0.1,0,0.1-0.1c0.6-0.4,1-0.7,1.1-0.8
		c0.2-0.1,1.7-1.4,3-2.7c1,1.6,2.5,2.7,3.1,3.1c0.4,0.4,0.9,0.8,1.6,1.2c1.7,1.1,4.2,2.4,7.5,3.8c0.1,0,0.2,0.1,0.3,0.1
		c0,0,0,0,0.1,0l6.4-0.5c0.3,0,0.8-0.1,1.4-0.3c0.7-0.3,1.7-0.7,3.2-1.4c1.1-0.5,1.9-0.9,2.6-1.3c0.6,0.7,1.6,1.6,2.9,2.5
		c0.1,0.1,0.3,0.1,0.4,0.1c1.6,0,2.9-0.2,4.1-0.5l0.1,0c0.1,0,0.2-0.1,0.3-0.1c0.3-0.1,0.5-0.3,0.5-0.6c0-0.2,0.3-0.8,1.6-2.1
		l0.1-0.1c0.8-0.8,1.7-1.6,2.6-2.3c0,0,0.1-0.1,0.1-0.1c0.3-0.5,0.7-0.9,1-1.4c0.3-0.5,0.7-1,1-1.5c0.6-0.9,1.7-1.9,2.6-2.5
		c0.9,3.8,3.1,5.9,6.6,8.4l1.1,0.6c1.3,0.7,2.2,1.3,3,1.7c0.1,0,0.2,0.1,0.3,0.1c0,0,0.2,0,0.5,0c2.3,0,10.2-0.9,16.4-12.1
		c0.1-0.2,0.1-0.5,0-0.8C398.6,112,398.4,111.8,398.1,111.8z M331.3,109.7c-0.1-0.3-0.1-0.6-0.1-0.9c0-2.5,2.5-5.2,7.5-8.2
		c0.8-0.2,1.1-0.1,1.7,0.5v2.7c0,1.1-0.4,1.2-1.1,2c-0.3,1.1-1.5,1.8-3,3c-0.3,0.3-0.7,0.6-1.2,0.9c-0.8,0.5-1.8,1.2-3,1.9
		C331.7,111,331.4,110.3,331.3,109.7z M367.9,112.2c-0.6,1.3-1.6,2-3.2,3.7c-0.9,0.9-1.8,1.8-2.7,2.7c-0.5,0.5-0.9,1-1.4,1.5
		c-0.4-0.1-0.9-0.3-1.5-0.7c0-0.4,0.2-1,0.9-2.1l6.6-6.4l0.5-0.5l0.6-0.4l0.8-0.5l0.4-0.3c0.1-0.1,0.2-0.1,0.2-0.1
		c0.3,0.2,0.5,0.4,0.5,0.5c0,0.1,0.1,0.1,0.1,0.2C369.2,110.8,368.5,111.6,367.9,112.2z M444.2,113.2c-0.1-0.4-0.6-0.6-1-0.5
		c-1.2,0.4-2.6,1.3-4,2.5c-1.3,1.1-2.3,1.7-2.9,2c-0.4-0.4-1.1-1.9-1.2-7c0-0.4,0-0.8,0-1.3c0-0.6,0.2-1.7,0.4-2.7
		c0.4-1.4,0.5-2.4,0.5-3.2c0-2.1-1-2.4-1.6-2.4c-0.6,0-1.2,0-1.7,0.1h-0.6c-0.1,0-0.2,0-0.2,0c-1.3,0.4-2.5,0.8-3.6,1.1
		c-1.9,0.6-3.6,1.1-5.1,1.7c-0.7,0.3-6.6,1.5-10.3,2.2c-0.4,0-0.8,0.1-1.2,0.2c-0.1,0-0.2,0-0.2,0.1c0-0.2-0.1-0.3-0.1-0.4l1.3-15.5
		c0.1-0.3,0.2-0.8,0.5-1.5c0.4-0.9,0.6-1.5,0.6-2c0-0.4,0.2-1.1,0.6-2c0.6-1.2,0.9-2,0.9-2.6c0-1.2-1.9-2.5-3.3-2.5
		c-1.1,0-2,0.4-2.7,1c-0.3,0.3-0.5,0.7-0.7,1.1c0,0,0,0.1,0,0.1l-0.5,2.7l0,0.1c-0.9,3.1-1.6,6.9-2,11.1c-0.1,1.9-0.3,3.8-0.4,5.7
		c-0.1,1.4-0.2,2.8-0.3,4.2l-0.1,1c-0.6-0.1-2.2-0.7-3.4-1.3c-0.2-0.1-0.4-0.2-0.6-0.3L401,105c-1.2-0.6-2.4-0.9-3.4-0.9
		c-1.1,0-2.1,0.4-2.7,1c-0.4,0.4-0.7,1-0.7,1.5c0,0.5,0,0.7,3.9,3c1.8,1,3.8,1.8,5,2.3c0.2,0.1,0.5,0.2,0.6,0.3l2.9,10.5
		c0,0,0,0.1,0,0.1c0.7,1.7,1.1,2.4,1.8,2.4c0.1,0,0.2,0,0.7-0.1c0.2,0,0.4-0.1,0.5-0.1c0.1,0,0.3-0.1,0.4-0.1
		c0.2-0.1,1.1-0.3,1.6-0.4c1.5-0.3,2-0.4,2-1.1c0-0.5-0.4-1.1-0.8-1.5c-0.1-0.1-0.2-0.2-0.2-0.3c-1.8-5.7-2.1-7.7-2.1-8.4
		c0-0.1,0.1-0.6,0.5-1.7c0.3-0.1,0.9-0.3,2.3-0.7c1.7-0.5,2.6-0.5,3-0.5c0.5,0,0.9-0.2,1.4-0.5c0.5-0.3,1.1-0.6,1.9-0.6
		c0.9,0,2.3-0.3,4.1-1c1-0.4,2.1-0.8,3.3-1.3c0.9-0.4,1.8-0.8,2.5-1.1v17c0,0.3,0.1,0.5,0.4,0.7c1.4,0.8,2.6,1.5,3.6,1.8
		c0.1,0,0.2,0,0.2,0c0.2,0,0.3-0.1,0.5-0.2c1.4-1.2,2.6-2.1,3.5-2.8c1.7-1.4,2-1.6,2.2-1.8c0.5-0.5,1.5-1.5,2.7-3
		c1.8-2.1,2.1-2.7,2.1-3.1v0c0,0,0,0,0,0v0c0,0,0,0,0-0.1v0c0-0.2-0.1-0.5-0.3-0.6C444.3,113.6,444.3,113.5,444.2,113.2z M454,87.2
		c0.8,0,1.5,0,1.9,0.1c0.3,0.1,0.6,0,0.8-0.2c0.3-0.3,0.5-0.6,0.7-0.8c0.3-0.4,0.4-0.6,0.4-0.8c0-0.3-0.2-0.6-0.6-0.7
		c-3.1-0.9-5.5-1.3-6.9-1.3c-0.4,0-2.6,0-4.3,0.2c-0.5,0.1-1.1,0.1-1.7,0.2c-1.9,0.2-4.1,0.4-6.5,1.1c-0.9,0.3-1.8,0.5-2.7,0.8
		c-4.9,1.6-7.6,3.2-8.5,5c-0.2,0.2-0.3,0.4-0.4,0.5c-0.1,0.1-0.2,0.2-0.3,0.3c-0.2,0.2-0.3,0.4-0.2,0.7c0.1,0.3,0.2,0.5,0.5,0.6
		c3,1.2,5.1,1.8,6.2,1.8c0,0,0.1,0,0.1,0c0.2,0,0.6,0.1,0.9,0.1c0.4,0.1,0.7,0.1,0.9,0.1c0.1,0,0.2,0,0.2,0c0.3-0.1,0.6-0.4,0.6-0.7
		v-2.3c0-0.2-0.1-0.4-0.3-0.6c0,0,0,0,0,0c0.5-0.6,1.2-1.2,2.1-1.6c0.2-0.1,0.9-0.3,4.1-1.1c3.6-0.9,4.3-1,4.4-1
		c0.4,0,1-0.2,1.5-0.3c0.2-0.1,0.4-0.1,0.5-0.1h0c0.7,0,4.6,0.1,6,0.1C453.8,87.2,454,87.2,454,87.2z M480.8,105.4l-0.4-0.2
		c-2.7-1.1-4.7-1.6-5.8-1.6c-0.4,0-1.4-0.3-2.3-0.5c-1.9-0.6-2.5-0.6-2.6-0.6c-0.5,0-1.1,0.3-1.6,0.5c-0.2,0.1-0.6,0.3-0.7,0.3
		c-0.4,0-0.8,0.3-0.8,0.8c0,0.5,0.1,1.1,0.1,1.9c0.1,0.7,0.1,1.3,0.1,1.7c0,0.3-0.2,1-0.4,1.4c-0.2,0.7-0.4,1.3-0.4,1.7v0
		c-0.5,1.5-1,2.9-1.5,4.4c-0.5,1.4-1.1,2.5-1.8,3c-0.4-1.1-0.7-2.5-0.9-4.2c-0.1-1.1-0.3-2.2-0.4-3.4c-0.2-1.1-0.3-2.3-0.4-3.4
		c-0.8-3.9-2.2-5.9-4.4-5.9c-2,0-5.1,1.4-5.1,3.2c0,0.4,0.2,1.4,1.7,4.3c1.3,2.5,1.6,3.9,1.6,4.5c0.1,1.5,0.5,3.1,1.1,4.9
		c0.2,0.5,0.3,0.9,0.4,1.4c0.5,1.5,0.9,2.8,1.7,3.5c0.4,0.6,1.3,1,3.5,1.5c1.7,0.4,3,0.6,4,0.7c0,0,0,0,0,0c0.2,0,0.5-0.1,0.6-0.3
		c1.1-1.4,1.9-2.4,2.6-3c0.1-0.1,0.2-0.2,0.2-0.3c1.6-3.9,2.6-6.7,3.1-8.7l1.1-2.8c0,0,0-0.1,0-0.1c0.3-1.2,0.7-1.7,2.8-1.8
		c0.6,0,1.1,0,1.5,0c1,0,1.4,0,1.7-0.1c0.3-0.1,0.6-0.2,0.8-0.3c0.8-0.4,1.2-1.2,1.1-2.2C481.3,105.8,481.1,105.5,480.8,105.4z
		 M514.7,120.8l-1.5-1.1c-0.2-0.2-0.6-0.2-0.9-0.1c-2,1.1-3.3,1.8-3.9,1.9c-0.5,0.2-1.8,0.4-4.8,0.4c-0.3,0-1.1-0.1-1.7-0.3
		c-0.8-0.1-1.5-0.3-1.8-0.3c-0.1-0.1-0.4-0.2-0.7-0.2c0,0-0.1,0-0.1-0.1c-0.2-0.1-0.4-0.2-0.9-0.2c-0.7,0-1.8-0.8-3.2-2.4
		c-1.8-2-2.1-2.8-2.1-3.1c0.1-0.1,0.4-0.5,1.5-1.3c1.5-1.1,2.3-1.7,2.4-1.7c0,0,0.1-0.1,0.1-0.1c4.3-4.4,5.2-5.5,5.4-6
		c0.9-1.5,1.4-2.3,1.5-3.6c0,0,0-0.1,0-0.1l0-1.3c-0.1-1.1-0.8-2.2-2.1-3.3c-1.3-1.2-2.7-1.8-4.2-1.8c-2.1,0-4.4,1.1-7,3.4
		c-2.2,2-3.5,3.8-4,5.4l-0.1,0.3c-0.5,1.8-0.9,3.5-0.9,4.9c0,0.2,0,0.4,0.2,1.7c0.1,0.5,0.1,0.9,0.1,1c0,0,0,0.1,0,0.1
		c0,0.1,0.3,2.2,0.5,2.9c0.7,2.7,2.7,4.8,3.9,5.6c1.5,1.4,4.6,3.1,9.1,5c0.1,0,0.2,0.1,0.3,0.1h2.1c0,0,0,0,0.1,0l3.5-0.3
		c0.2,0,0.4-0.1,0.6-0.2c0,0,0.1,0,0.1,0c0.7,0,1.9-0.5,4.5-1.7c3.2-1.5,3.9-2.1,4.2-2.5C515.1,121.5,515,121,514.7,120.8z
		 M491,108.8c0-2.5,2.5-5.2,7.5-8.2c0.5,0.3,1.1,0.5,1.7,0.5v2.7c0,1.1,0,0.7-0.7,2c-0.5,1.2-1.9,1.8-3.4,3
		c-0.8,0.6-2.2,1.6-4.2,2.8C491.4,110.7,491,109.7,491,108.8z"/>
</g>
</svg>
