<?xml version="1.0" encoding="UTF-8" standalone="no"?>
<svg width="139px" height="140px" viewBox="0 0 139 140" version="1.1" xmlns="http://www.w3.org/2000/svg" xmlns:xlink="http://www.w3.org/1999/xlink" xmlns:sketch="http://www.bohemiancoding.com/sketch/ns">
    <!-- Generator: Sketch 3.1 (8751) - http://www.bohemiancoding.com/sketch -->
    <title>Slice 2</title>
    <desc>Created with Sketch.</desc>
    <defs></defs>
    <g id="Page-1" stroke="none" stroke-width="1" fill="none" fill-rule="evenodd" sketch:type="MSPage">
        <g id="Shape-+-Shape" sketch:type="MSLayerGroup" transform="translate(0.000000, 1.000000)">
            <path d="M69.5154528,-0.443112428 C31.1821987,-0.443112428 0,30.7390863 0,69.0723403 C0,107.398933 31.1821987,138.587793 69.5154528,138.587793 C107.842045,138.587793 139.024244,107.402264 139.024244,69.0723403 C139.024244,30.7390863 107.842045,-0.443112428 69.5154528,-0.443112428 L69.5154528,-0.443112428 Z M69.5154528,125.944381 C38.1533952,125.944381 12.6367509,100.434398 12.6367509,69.0723403 C12.6367509,37.7102828 38.1533952,12.1969692 69.5154528,12.1969692 C100.87418,12.1969692 126.387493,37.7102828 126.387493,69.0723403 C126.387493,100.434398 100.87418,125.944381 69.5154528,125.944381 L69.5154528,125.944381 Z" id="Shape" fill="#F62222" sketch:type="MSShapeGroup"></path>
            <path d="M101.300512,56.428928 C100.018185,56.428928 98.7758261,56.6154483 97.5800977,56.9351974 C96.6008661,46.9963296 89.5230866,39.2790518 80.9198373,39.2790518 C75.8971119,39.2790518 71.4073016,41.9203126 68.3297165,46.0803816 C65.2554622,41.9203126 60.7623212,39.2790518 55.7429264,39.2790518 C47.2629138,39.2790518 40.271733,46.7765021 39.1392883,56.5088653 C38.6796489,56.4622352 38.226671,56.428928 37.7603703,56.428928 C28.4909771,56.428928 20.9735425,65.3819028 20.9735425,76.4332311 L21.0501491,75.7171263 L43.8988869,75.7171263 L64.7025627,98.8589674 L66.0148663,98.8589674 L66.0148663,75.7171263 L86.1157602,75.7171263 L118.057363,75.7171263 C117.737614,65.0022008 110.370062,56.428928 101.300512,56.428928 L101.300512,56.428928 Z" id="Shape" fill="#000000" sketch:type="MSShapeGroup"></path>
        </g>
    </g>
</svg>